<!-- <svg xmlns="http://www.w3.org/2000/svg" viewBox="0 0 24 24" width="24" height="24">
  <path fill="#007ACC" d="M12,2C6.486,2,2,6.486,2,12c0,5.514,4.486,10,10,10s10-4.486,10-10C22,6.486,17.514,2,12,2z"/>
  <path fill="#FFFFFF" d="M14.5,8.5H9.5v7h5v-1.25H11.25v-0.5h2.25v-1.25H11.25v-0.5h3.25V8.5z"/>
</svg> -->
<svg xmlns="http://www.w3.org/2000/svg" viewBox="0 0 24 24" width="24" height="24">
  <circle cx="12" cy="12" r="10" fill="#007ACC"/>
  <rect x="9.5" y="8.5" width="5" height="7" fill="#FFFFFF"/>
  <rect x="11.25" y="11.75" width="2.25" height="0.5" fill="#007ACC"/>
  <rect x="11.25" y="10.25" width="2.25" height="0.5" fill="#007ACC"/>
  <rect x="11.25" y="8.75" width="3.25" height="0.5" fill="#007ACC"/>
</svg>
